<svg width="163" height="163" viewBox="0 0 163 163" fill="none" xmlns="http://www.w3.org/2000/svg">
                            <path d="M81.09 162.18C125.875 162.18 162.18 125.875 162.18 81.09C162.18 36.3052 125.875 0 81.09 0C36.3053 0 0 36.3052 0 81.09C0 125.875 36.3053 162.18 81.09 162.18Z" fill="#AAEEC4"></path>
                            <path d="M81.0906 147.041C117.514 147.041 147.041 117.514 147.041 81.0906C147.041 44.6674 117.514 15.1406 81.0906 15.1406C44.6675 15.1406 15.1406 44.6674 15.1406 81.0906C15.1406 117.514 44.6675 147.041 81.0906 147.041Z" stroke="#502BD8" stroke-width="8" stroke-miterlimit="1.2"></path>
                            <path d="M103.819 78.3292C108.906 78.3292 113.029 74.1028 113.029 68.8892C113.029 63.6757 108.906 59.4492 103.819 59.4492C98.7329 59.4492 94.6094 63.6757 94.6094 68.8892C94.6094 74.1028 98.7329 78.3292 103.819 78.3292Z" fill="#502BD8"></path>
                            <path d="M58.3662 78.3292C63.4528 78.3292 67.5762 74.1028 67.5762 68.8892C67.5762 63.6757 63.4528 59.4492 58.3662 59.4492C53.2797 59.4492 49.1562 63.6757 49.1562 68.8892C49.1562 74.1028 53.2797 78.3292 58.3662 78.3292Z" fill="#502BD8"></path>
                            <path d="M48.8438 94.8906C52.3937 109.411 65.4838 120.181 81.0938 120.181C96.7037 120.181 109.794 109.411 113.344 94.8906" stroke="#502BD8" stroke-width="8" stroke-miterlimit="1.2"></path>
                        </svg>